# xmcd
#
# Track frame offsets:
#	150
#	11044
#	33906
#	50021
#	56969
#	67786
#	86182
#	95544
#	114665
#	127294
#	148236
#	169405
#	194729
#
# Disc length: 2751 seconds
#
# Revision: 0
# Processed by: cddbd v1.5.1PL0 Copyright (c) Steve Scherf et al.
# Submitted via: EasyCDDAExtractor 4.6.9.1
#
DISCID=cd0abd0d
DTITLE=The Punlin Holler Boys - Kettle of Fish
DYEAR=1999
DGENRE=Bluegrass
TTITLE0=Untitled 1a
TTITLE1=Acquanintances
TTITLE2=Pendleton Pike Blues
TTITLE3=Kettle of Fish
TTITLE4=Old Man Miller
TTITLE5=Tree House
TTITLE6=Punkin Holler Socail Music
TTITLE7=Take Me Back to the Doctor
TTITLE8=Hard to Believe
TTITLE9=Better Beer
TTITLE10=Butch Says
TTITLE11=Punkin Holler Weddin' and Hangin' Hymn/Caseys Ridge
TTITLE12=Someone You're Forgetting
EXTD=
EXTT0=
EXTT1=
EXTT2=
EXTT3=
EXTT4=
EXTT5=
EXTT6=
EXTT7=
EXTT8=
EXTT9=
EXTT10=
EXTT11=
EXTT12=
PLAYORDER=
